<svg width="24" height="24" viewBox="0 0 24 24" fill="none" xmlns="http://www.w3.org/2000/svg">
  <path d="M12 2C13.1 2 14 2.9 14 4V5.5C16.2 6.5 18 8.8 18 11.5V16L21 19H3L6 16V11.5C6 8.8 7.8 6.5 10 5.5V4C10 2.9 10.9 2 12 2Z" fill="#FF6B35"/>
  <path d="M9 20C9 21.1 9.9 22 11 22H13C14.1 22 15 21.1 15 20H9Z" fill="#FF6B35"/>
  <circle cx="12" cy="12" r="2" fill="white"/>
  <path d="M12 8V10" stroke="white" stroke-width="1.5" stroke-linecap="round"/>
  <path d="M12 14V16" stroke="white" stroke-width="1.5" stroke-linecap="round"/>
</svg> 